<?xml version="1.0" standalone="no"?><!DOCTYPE svg PUBLIC "-//W3C//DTD SVG 1.1//EN" "http://www.w3.org/Graphics/SVG/1.1/DTD/svg11.dtd"><svg t="1658303414958" class="icon" viewBox="0 0 1024 1024" version="1.1" xmlns="http://www.w3.org/2000/svg" p-id="3095" width="16" height="16" xmlns:xlink="http://www.w3.org/1999/xlink"><defs><style type="text/css">@font-face { font-family: feedback-iconfont; src: url("//at.alicdn.com/t/font_1031158_u69w8yhxdu.woff2?t=1630033759944") format("woff2"), url("//at.alicdn.com/t/font_1031158_u69w8yhxdu.woff?t=1630033759944") format("woff"), url("//at.alicdn.com/t/font_1031158_u69w8yhxdu.ttf?t=1630033759944") format("truetype"); }
</style></defs><path d="M517.953488 80.276837a24.468837 24.468837 0 0 1 12.621396 3.572093 801.661023 801.661023 0 0 0 308.997953 100.47107 22.539907 22.539907 0 0 1 20.241861 22.087442v418.93507a22.230326 22.230326 0 0 1-7.382326 16.503069l-0.261953 0.23814-0.261954 0.238139-318.964093 295.805024a22.742326 22.742326 0 0 1-29.946046 0L184.04614 642.32186l-0.250047-0.238139-0.261953-0.23814a22.230326 22.230326 0 0 1-7.382326-16.503069V206.383628a22.539907 22.539907 0 0 1 20.24186-22.099349A801.637209 801.637209 0 0 0 505.355907 83.825116a24.468837 24.468837 0 0 1 12.621395-3.572093M517.953488 35.72093a69.834419 69.834419 0 0 0-36.090046 10.061396C399.741023 95.255814 291.077953 128.202419 191.011721 140.002233a67.238698 67.238698 0 0 0-59.963535 66.369488v418.970791a66.56 66.56 0 0 0 22.146977 49.497302L472.468837 970.954419a68.21507 68.21507 0 0 0 91.005023 0l319.273675-296.114605A66.56 66.56 0 0 0 904.930233 625.342512V206.383628a67.238698 67.238698 0 0 0-59.963535-66.369488c-100.018605-11.799814-208.729302-44.770233-290.875535-94.267535A69.834419 69.834419 0 0 0 517.953488 35.72093z" fill="#2c2c2c" p-id="3096"></path><path d="M666.790698 512H381.023256a23.813953 23.813953 0 0 1 0-47.627907h285.767442a23.813953 23.813953 0 0 1 0 47.627907zM523.906977 654.883721a23.813953 23.813953 0 0 1-23.813954-23.813954V345.302326a23.813953 23.813953 0 0 1 47.627907 0v285.767441a23.813953 23.813953 0 0 1-23.813953 23.813954z" fill="#2c2c2c" p-id="3097"></path></svg>